<svg xmlns="http://www.w3.org/2000/svg" width="132.161" height="50.156" viewBox="0 0 132.161 50.156"><defs><style>.a{isolation:isolate;}.b{fill:#fff;}.c{fill:#c6e3fd;}</style></defs><g transform="translate(-863.409 116.805)"><g class="a"><g class="a"><path class="b" d="M934.293-103.23a4.646,4.646,0,0,1-2.59.692,4.916,4.916,0,0,1-2.422-.566,3.8,3.8,0,0,1-1.568-1.639,5.56,5.56,0,0,1-.546-2.554,5.575,5.575,0,0,1,.546-2.548,3.8,3.8,0,0,1,1.568-1.646,4.885,4.885,0,0,1,2.408-.566,4.849,4.849,0,0,1,2.562.637,3.041,3.041,0,0,1,1.386,1.911l-2.114.854a2.118,2.118,0,0,0-.6-1.177,1.759,1.759,0,0,0-1.148-.335,1.873,1.873,0,0,0-1.582.735,3.479,3.479,0,0,0-.56,2.135,3.575,3.575,0,0,0,.539,2.134,1.815,1.815,0,0,0,1.561.736,1.87,1.87,0,0,0,1.218-.365,1.942,1.942,0,0,0,.616-1.147l2.184.615A3.517,3.517,0,0,1,934.293-103.23Z"/><path class="b" d="M946.417-111.917v9.24h-2.408V-106.4h-3.528v3.724h-2.408v-9.24h2.408v3.654h3.528v-3.654Z"/><path class="b" d="M951.849-102.677H949.44v-9.24h2.409Z"/><path class="b" d="M961.915-104.54v1.863h-7.042v-9.24h2.408v7.377Z"/><path class="b" d="M971.525-110.72a4.729,4.729,0,0,1,1.156,3.423,4.725,4.725,0,0,1-1.156,3.422,4.406,4.406,0,0,1-3.325,1.2h-3.92v-9.24h3.92A4.406,4.406,0,0,1,971.525-110.72Zm-1.854,5.523a3.388,3.388,0,0,0,.546-2.1,3.388,3.388,0,0,0-.546-2.1,2.031,2.031,0,0,0-1.708-.7h-1.275v5.6h1.275A2.031,2.031,0,0,0,969.671-105.2Z"/></g><g class="a"><path class="b" d="M938.255-87.677h-2.128v-4.242l.07-2.842h-.028l-2.282,7.084h-1.946l-2.282-7.084h-.028l.07,2.842v4.242h-2.142v-9.24h3.43l1.456,4.7.518,1.96h.028l.532-1.947,1.442-4.717h3.29Z"/><path class="b" d="M948.656-89.54v1.863h-7.377v-9.24h7.2v1.862h-4.788v1.876h3.807v1.75h-3.807v1.889Z"/><path class="b" d="M958.338-95.72a4.737,4.737,0,0,1,1.154,3.423,4.733,4.733,0,0,1-1.154,3.422,4.411,4.411,0,0,1-3.325,1.2h-3.92v-9.24h3.92A4.41,4.41,0,0,1,958.338-95.72ZM956.482-90.2a3.375,3.375,0,0,0,.546-2.1,3.375,3.375,0,0,0-.546-2.1,2.03,2.03,0,0,0-1.708-.7H953.5v5.6h1.273A2.03,2.03,0,0,0,956.482-90.2Z"/><path class="b" d="M964.532-87.677h-2.408v-9.24h2.408Z"/><path class="b" d="M974.29-88.23a4.641,4.641,0,0,1-2.59.692,4.919,4.919,0,0,1-2.422-.566,3.8,3.8,0,0,1-1.568-1.639,5.573,5.573,0,0,1-.546-2.554,5.588,5.588,0,0,1,.546-2.548,3.8,3.8,0,0,1,1.568-1.646,4.892,4.892,0,0,1,2.409-.566,4.846,4.846,0,0,1,2.561.637,3.046,3.046,0,0,1,1.387,1.911l-2.114.854a2.119,2.119,0,0,0-.6-1.177,1.758,1.758,0,0,0-1.147-.335,1.875,1.875,0,0,0-1.583.735,3.479,3.479,0,0,0-.559,2.135,3.575,3.575,0,0,0,.538,2.134,1.815,1.815,0,0,0,1.562.736,1.869,1.869,0,0,0,1.217-.365,1.942,1.942,0,0,0,.616-1.147l2.184.615A3.513,3.513,0,0,1,974.29-88.23Z"/><path class="b" d="M983.362-89.763h-3.191l-.645,2.086H977.1l3.249-9.24h2.883l3.235,9.24h-2.479Zm-.5-1.638-.671-2.212-.407-1.456h-.027l-.378,1.442-.7,2.226Z"/><path class="b" d="M995.57-89.54v1.863h-7.042v-9.24h2.409v7.377Z"/></g><g class="a"><path class="b" d="M931.367-76.051h-1.442v3.374h-2.366v-9.24h4.41a3.92,3.92,0,0,1,2.583.755,2.69,2.69,0,0,1,.9,2.185,2.9,2.9,0,0,1-.462,1.68,2.7,2.7,0,0,1-1.344.994L936-72.677h-2.66Zm-1.442-1.708h1.638a1.785,1.785,0,0,0,1.12-.281,1.075,1.075,0,0,0,.35-.895,1.061,1.061,0,0,0-.35-.882,1.8,1.8,0,0,0-1.12-.28h-1.638Z"/><path class="b" d="M945.563-74.54v1.863h-7.378v-9.24h7.2v1.862h-4.788v1.876H944.4v1.75h-3.808v1.889Z"/><path class="b" d="M954.648-73.23a4.64,4.64,0,0,1-2.589.692,4.913,4.913,0,0,1-2.422-.566,3.8,3.8,0,0,1-1.569-1.639,5.574,5.574,0,0,1-.546-2.554,5.589,5.589,0,0,1,.546-2.548,3.8,3.8,0,0,1,1.569-1.646,4.885,4.885,0,0,1,2.408-.566,4.844,4.844,0,0,1,2.561.637,3.039,3.039,0,0,1,1.387,1.911l-2.114.854a2.113,2.113,0,0,0-.6-1.177,1.756,1.756,0,0,0-1.147-.335,1.872,1.872,0,0,0-1.582.735,3.479,3.479,0,0,0-.56,2.135,3.575,3.575,0,0,0,.538,2.134,1.816,1.816,0,0,0,1.562.736,1.87,1.87,0,0,0,1.218-.365,1.942,1.942,0,0,0,.616-1.147l2.183.615A3.509,3.509,0,0,1,954.648-73.23Z"/><path class="b" d="M964.988-81.491a3.817,3.817,0,0,1,1.561,1.639,5.562,5.562,0,0,1,.546,2.555,5.56,5.56,0,0,1-.546,2.554,3.806,3.806,0,0,1-1.561,1.639,4.875,4.875,0,0,1-2.415.566,4.916,4.916,0,0,1-2.422-.566,3.8,3.8,0,0,1-1.568-1.639,5.56,5.56,0,0,1-.546-2.554,5.562,5.562,0,0,1,.546-2.555,3.809,3.809,0,0,1,1.568-1.639,4.916,4.916,0,0,1,2.422-.566A4.875,4.875,0,0,1,964.988-81.491Zm-3.955,2.052A3.6,3.6,0,0,0,960.5-77.3a3.6,3.6,0,0,0,.532,2.142,1.788,1.788,0,0,0,1.54.728,1.77,1.77,0,0,0,1.533-.728,3.643,3.643,0,0,0,.525-2.142,3.643,3.643,0,0,0-.525-2.142,1.772,1.772,0,0,0-1.533-.728A1.791,1.791,0,0,0,961.033-79.439Z"/><path class="b" d="M973.535-76.051h-1.442v3.374h-2.366v-9.24h4.41a3.92,3.92,0,0,1,2.583.755,2.69,2.69,0,0,1,.9,2.185,2.9,2.9,0,0,1-.462,1.68,2.693,2.693,0,0,1-1.345.994l2.353,3.626h-2.66Zm-1.442-1.708h1.637a1.788,1.788,0,0,0,1.121-.281,1.078,1.078,0,0,0,.35-.895,1.064,1.064,0,0,0-.35-.882,1.8,1.8,0,0,0-1.121-.28h-1.637Z"/><path class="b" d="M987.6-80.72a4.733,4.733,0,0,1,1.155,3.423,4.729,4.729,0,0,1-1.155,3.422,4.409,4.409,0,0,1-3.326,1.2h-3.919v-9.24h3.919A4.408,4.408,0,0,1,987.6-80.72ZM985.743-75.2a3.388,3.388,0,0,0,.546-2.1,3.388,3.388,0,0,0-.546-2.1,2.03,2.03,0,0,0-1.708-.7h-1.274v5.6h1.274A2.03,2.03,0,0,0,985.743-75.2Z"/></g></g><path class="c" d="M899.933-66.649h-23v-36.632h36.632v23H899.933Z"/><path class="b" d="M900.041-80.173H874.909a11.5,11.5,0,0,1-11.5-11.5,11.5,11.5,0,0,1,11.5-11.5h2.132v-2.132a11.5,11.5,0,0,1,11.5-11.5,11.5,11.5,0,0,1,11.5,11.5Z"/></g></svg>