<?xml version="1.0" standalone="no"?>
<!DOCTYPE svg PUBLIC "-//W3C//DTD SVG 1.1//EN" "http://www.w3.org/Graphics/SVG/1.1/DTD/svg11.dtd" >
<svg xmlns="http://www.w3.org/2000/svg">
<metadata>Generated by IcoMoon</metadata>
<defs>
<font id="icomoon" horiz-adv-x="1024">
<font-face units-per-em="1024" ascent="960" descent="-64" />
<missing-glyph horiz-adv-x="1024" />
<glyph unicode="&#x20;" horiz-adv-x="512" d="" />
<glyph unicode="&#xe900;" glyph-name="access-time" d="M511.545 874.667c-235.446-0.259-426.212-191.185-426.212-426.666 0-235.641 191.025-426.667 426.667-426.667s426.667 191.025 426.667 426.667v0c0 235.642-191.025 426.667-426.667 426.667-0.16 0-0.32 0-0.48 0h0.025zM512 106.667c-188.513 0-341.333 152.82-341.333 341.333s152.82 341.333 341.333 341.333c188.513 0 341.333-152.82 341.333-341.333v0c0-188.513-152.82-341.333-341.333-341.333v0zM533.333 661.333h-64v-256l224.028-134.372 32.028 52.452-192 113.778z" />
<glyph unicode="&#xe901;" glyph-name="assignment" d="M821.703 834.844h-184.946c-19.136 51.37-67.765 87.297-124.786 87.297s-105.649-35.927-124.486-86.379l-0.3-0.918h-184.889c-0.12 0.001-0.261 0.001-0.402 0.001-48.368 0-87.635-38.969-88.116-87.223v-610.634c0.514-48.275 39.768-87.212 88.116-87.212 0.142 0 0.283 0 0.425 0.001h619.384c0.12-0.001 0.261-0.001 0.403-0.001 48.348 0 87.602 38.936 88.116 87.163v610.637c-0.482 48.3-39.749 87.268-88.117 87.268-0.141 0-0.283 0-0.424-0.001h0.022zM512 834.844c23.828-0.353 43.008-19.751 43.008-43.629 0-24.098-19.536-43.634-43.634-43.634s-43.631 19.533-43.634 43.629v0c0.257 24.153 19.897 43.634 44.087 43.634 0.061 0 0.122 0 0.182 0h-0.009zM556.26 224.256h-221.241c-0.47-0.018-1.021-0.028-1.575-0.028-24.098 0-43.634 19.536-43.634 43.634s19.536 43.634 43.634 43.634c0.554 0 1.106-0.010 1.655-0.031l-0.079 0.002h221.241c0.47 0.018 1.021 0.028 1.575 0.028 24.098 0 43.634-19.536 43.634-43.634s-19.536-43.634-43.634-43.634c-0.554 0-1.106 0.010-1.655 0.031l0.079-0.002zM688.981 398.677h-353.963c-0.47-0.018-1.021-0.028-1.575-0.028-24.098 0-43.634 19.536-43.634 43.634s19.536 43.634 43.634 43.634c0.554 0 1.106-0.010 1.655-0.031l-0.079 0.002h353.963c0.47 0.018 1.021 0.028 1.575 0.028 24.098 0 43.634-19.536 43.634-43.634s-19.536-43.634-43.634-43.634c-0.554 0-1.106 0.010-1.655 0.031l0.079-0.002zM688.981 573.156h-353.963c-0.47-0.018-1.021-0.028-1.575-0.028-24.098 0-43.634 19.536-43.634 43.634s19.536 43.634 43.634 43.634c0.554 0 1.106-0.010 1.655-0.031l-0.079 0.002h353.963c0.47 0.018 1.021 0.028 1.575 0.028 24.098 0 43.634-19.536 43.634-43.634s-19.536-43.634-43.634-43.634c-0.554 0-1.106 0.010-1.655 0.031l0.079-0.002z" />
<glyph unicode="&#xe902;" glyph-name="cake" d="M542.094 708.551c30.809 10.786 53.313 37.758 57.47 70.457l0.044 0.426c0.409 3.092 0.643 6.667 0.643 10.296 0 16.561-4.864 31.987-13.241 44.925l0.196-0.324-56.889 95.972c-4.095 6.429-11.185 10.632-19.257 10.632s-15.162-4.203-19.202-10.54l-0.055-0.092-56.889-95.972c-7.531-12.646-11.982-27.885-11.982-44.164 0-48.259 39.122-87.381 87.381-87.381 11.221 0 21.949 2.115 31.805 5.969l-0.594-0.205zM712.42 274.66l-44.26 43.236-47.787-46.251c-28.305-26.209-66.319-42.286-108.089-42.286s-79.784 16.077-108.193 42.381l0.104-0.095-47.332 46.251-48.242-46.251c-27.653-26.988-65.503-43.636-107.242-43.636-0.298 0-0.595 0.001-0.892 0.003h0.046c-32.343 0.015-62.385 9.853-87.309 26.692l0.553-0.352v-156.046c0.735-47.883 39.724-86.418 87.713-86.418 0.283 0 0.567 0.001 0.849 0.004h619.363c0.24-0.002 0.523-0.004 0.806-0.004 47.989 0 86.978 38.535 87.712 86.349l0.001 0.069v156.046c-24.332-16.523-54.354-26.379-86.677-26.379-43.518 0-82.863 17.866-111.101 46.664l-0.025 0.025zM777.444 573.724h-221.184v43.122c0 24.444-19.816 44.26-44.26 44.26s-44.26-19.816-44.26-44.26v0-43.236h-221.241c-0.56 0.009-1.221 0.014-1.884 0.014-71.808 0-130.106-57.845-130.837-129.48l-0.001-0.069v-63.090c-0.009-0.466-0.014-1.016-0.014-1.566 0-37.718 23.897-69.854 57.377-82.094l0.607-0.194c8.522-2.99 18.347-4.717 28.575-4.717 23.813 0 45.439 9.361 61.401 24.603l-0.034-0.033 94.549 92.046 94.265-92.046c15.876-15.244 37.477-24.631 61.269-24.631s45.393 9.387 61.299 24.66l-0.030-0.029 94.663 92.046 94.265-92.046c15.774-15.225 37.275-24.606 60.968-24.606 4.24 0 8.409 0.3 12.488 0.881l-0.468-0.055c42.639 7.041 74.761 43.637 74.761 87.735 0 0.456-0.003 0.911-0.010 1.365l0.001-0.069v61.383c-0.22 71.908-58.564 130.116-130.503 130.116-0.6 0-1.2-0.004-1.798-0.012l0.091 0.001z" />
<glyph unicode="&#xe903;" glyph-name="calendar-today" d="M840.704 825.515h-41.074v41.984c0 22.684-18.389 41.074-41.074 41.074s-41.074-18.389-41.074-41.074v0-41.927h-410.908v41.927c0 22.684-18.389 41.074-41.074 41.074s-41.074-18.389-41.074-41.074v0-41.927h-41.131c-45.506-0.64-82.15-37.68-82.15-83.278 0-0.223 0.001-0.445 0.003-0.668v0.034-671.289c-0.002-0.188-0.002-0.411-0.002-0.634 0-45.598 36.644-82.637 82.090-83.277l0.060-0.001h657.408c45.506 0.64 82.15 37.68 82.15 83.278 0 0.223-0.001 0.445-0.003 0.668v-0.034 671.289c0.001 0.171 0.002 0.374 0.002 0.577 0 45.598-36.643 82.637-82.089 83.277l-0.060 0.001zM799.63 70.428h-575.204c-22.753 0.32-41.075 18.84-41.075 41.639 0 0.101 0 0.203 0.001 0.304v-0.016 503.41h657.351v-503.353c0.001-0.086 0.001-0.187 0.001-0.288 0-22.799-18.322-41.319-41.045-41.638h-0.030z" />
<glyph unicode="&#xe904;" glyph-name="dashboard" d="M158.037 403.74h265.444c24.418 0.065 44.195 19.842 44.26 44.253v353.969c-0.065 24.418-19.842 44.195-44.253 44.26h-265.45c-24.418-0.065-44.195-19.842-44.26-44.253v-353.969c0.065-24.418 19.842-44.195 44.253-44.26h0.006zM158.037 49.778h265.444c24.418 0.065 44.195 19.842 44.26 44.253v176.987c-0.065 24.418-19.842 44.195-44.253 44.26h-265.45c-24.418-0.065-44.195-19.842-44.26-44.253v-176.987c0.065-24.418 19.842-44.195 44.253-44.26h0.006zM600.519 49.778h265.5c24.393 0.097 44.138 19.862 44.203 44.253v353.969c-0.065 24.418-19.842 44.195-44.253 44.26h-265.45c-24.418-0.065-44.195-19.842-44.26-44.253v-353.969c0.065-24.418 19.842-44.195 44.253-44.26h0.006zM556.26 801.963v-176.981c0.065-24.418 19.842-44.195 44.253-44.26h265.506c24.393 0.097 44.138 19.862 44.203 44.253v176.987c-0.065 24.418-19.842 44.195-44.253 44.26h-265.45c-24.418-0.065-44.195-19.842-44.26-44.253v-0.006z" />
<glyph unicode="&#xe905;" glyph-name="email" d="M853.333 789.333h-682.667c-46.957-0.226-84.935-38.344-84.935-85.332 0 0 0-0.001 0-0.001v0l-0.398-512c0-47.128 38.205-85.333 85.333-85.333v0h682.667c47.128 0 85.333 38.205 85.333 85.333v0 512c0 47.128-38.205 85.333-85.333 85.333v0zM836.267 607.972l-301.511-188.416c-6.431-4.021-14.244-6.405-22.613-6.405s-16.182 2.384-22.795 6.511l0.182-0.106-301.796 188.416c-10.74 6.421-17.82 17.988-17.82 31.209 0 20.014 16.224 36.238 36.238 36.238 7.441 0 14.359-2.243 20.114-6.090l-0.132 0.083 285.867-178.745 285.867 178.745c5.623 3.764 12.541 6.007 19.982 6.007 20.014 0 36.238-16.224 36.238-36.238 0-13.221-7.080-24.788-17.655-31.117l-0.165-0.092z" />
<glyph unicode="&#xe906;" glyph-name="event-note" d="M688.981 529.522h-353.963c-0.47 0.018-1.021 0.028-1.575 0.028-24.098 0-43.634-19.536-43.634-43.634s19.536-43.634 43.634-43.634c0.554 0 1.106 0.010 1.655 0.031l-0.079-0.002h353.963c0.47-0.018 1.021-0.028 1.575-0.028 24.098 0 43.634 19.536 43.634 43.634s-19.536 43.634-43.634 43.634c-0.554 0-1.106-0.010-1.655-0.031l0.079 0.002zM821.703 834.844h-44.26v43.577c0 24.444-19.816 44.26-44.26 44.26s-44.26-19.816-44.26-44.26v0-43.634h-353.906v43.634c0 24.444-19.816 44.26-44.26 44.26s-44.26-19.816-44.26-44.26v0-43.634h-44.203c-0.203 0.002-0.444 0.003-0.685 0.003-48.292 0-87.481-38.971-87.834-87.18v-610.622c0.353-48.242 39.543-87.213 87.834-87.213 0.241 0 0.481 0.001 0.722 0.003h619.369c0.12-0.001 0.261-0.001 0.403-0.001 48.348 0 87.602 38.936 88.116 87.163v610.637c-0.482 48.3-39.749 87.268-88.117 87.268-0.141 0-0.283 0-0.424-0.001h0.022zM777.5 136.988h-531.001c-0.051 0-0.112 0-0.173 0-24.19 0-43.829 19.481-44.086 43.61v436.134h619.463v-436.167c-0.289-24.128-19.916-43.577-44.086-43.577-0.041 0-0.082 0-0.123 0h0.006zM556.26 355.044h-221.241c-0.47 0.018-1.021 0.028-1.575 0.028-24.098 0-43.634-19.536-43.634-43.634s19.536-43.634 43.634-43.634c0.554 0 1.106 0.010 1.655 0.031l-0.079-0.002h221.241c0.47-0.018 1.021-0.028 1.575-0.028 24.098 0 43.634 19.536 43.634 43.634s-19.536 43.634-43.634 43.634c-0.554 0-1.106-0.010-1.655-0.031l0.079 0.002z" />
<glyph unicode="&#xe907;" glyph-name="exit-to-app" d="M622.421 637.838c-7.99 8.046-19.058 13.027-31.289 13.027s-23.299-4.981-31.286-13.025l-158.837-158.837c-8.046-7.99-13.027-19.058-13.027-31.289s4.981-23.299 13.025-31.286l0.003-0.003 159.004-158.663c8.008-8.008 19.070-12.96 31.289-12.96 24.438 0 44.249 19.811 44.249 44.249 0 12.219-4.953 23.281-12.96 31.289v0l-83.172 83.627h313.913c24.444 0 44.26 19.816 44.26 44.26s-19.816 44.26-44.26 44.26h-314.084l83.172 82.944c7.9 8.025 12.778 19.044 12.778 31.204s-4.878 23.179-12.784 31.209l0.006-0.006zM259.186-7.111h505.628c0.017 0 0.037 0 0.057 0 48.856 0 88.462 39.606 88.462 88.462 0 0.020 0 0.040 0 0.060v-0.003 132.722c0 24.444-19.816 44.26-44.26 44.26s-44.26-19.816-44.26-44.26v0-88.519c-0.065-24.418-19.842-44.195-44.253-44.26h-417.172c-24.418 0.065-44.195 19.842-44.26 44.253v644.785c0.065 24.418 19.842 44.195 44.253 44.26h417.229c24.418-0.065 44.195-19.842 44.26-44.253v-88.525c0-24.444 19.816-44.26 44.26-44.26s44.26 19.816 44.26 44.26v0 132.722c-0.129 48.856-39.716 88.422-88.567 88.519h-505.694c-48.811-0.161-88.333-39.703-88.462-88.507v-733.196c0.129-48.836 39.683-88.39 88.507-88.519h0.012z" />
<glyph unicode="&#xe908;" glyph-name="face" d="M381.156 458.923c-30.099 0-54.5-24.4-54.5-54.5s24.4-54.5 54.5-54.5c30.099 0 54.5 24.4 54.5 54.5v0c-0.032 30.086-24.413 54.467-54.496 54.5h-0.003zM642.844 458.923c-30.099 0-54.5-24.4-54.5-54.5s24.4-54.5 54.5-54.5c30.099 0 54.5 24.4 54.5 54.5v0c-0.032 30.086-24.413 54.467-54.496 54.5h-0.003zM512 884.167c-240.888 0-436.167-195.279-436.167-436.167s195.279-436.167 436.167-436.167c240.888 0 436.167 195.279 436.167 436.167v0c-0.065 240.862-195.304 436.102-436.16 436.167h-0.007zM512 99.1c-192.612 0.227-348.698 156.292-348.956 348.875v0.025c0.061 13.281 0.845 26.306 2.314 39.122l-0.152-1.632c103.232 46.825 183.445 129.308 226.196 231.374l1.075 2.895c79.751-112.185 209.252-184.491 355.642-184.491 0.090 0 0.179 0 0.269 0h-0.014c0.11 0 0.24 0 0.37 0 34.683 0 68.397 4.148 100.673 11.974l-2.91-0.596c9.143-29.683 14.409-63.806 14.409-99.158 0-192.409-155.978-348.388-348.388-348.388-0.186 0-0.371 0-0.557 0h0.028z" />
<glyph unicode="&#xe909;" glyph-name="ic-arrow-blue" d="M959.993 384.020l-383.99-383.99c-35.345-35.345-92.651-35.345-127.997 0v0c-35.345 35.345-35.345 92.651 0 127.997v0l319.992 319.992-319.992 319.992c-35.345 35.345-35.345 92.651 0 127.997v0c35.345 35.345 92.651 35.345 127.997 0v0l383.99-383.99c35.345-35.345 35.345-92.651 0-127.997v0z" />
<glyph unicode="&#xe90a;" glyph-name="ic-arrow-grey" d="M448.020 0.007l-383.99 383.99c-35.345 35.345-35.345 92.651 0 127.997v0c35.345 35.345 92.651 35.345 127.997 0v0l319.992-319.992 319.992 319.992c35.345 35.345 92.651 35.345 127.997 0v0c35.345-35.345 35.345-92.651 0-127.997v0l-383.99-383.99c-35.345-35.345-92.651-35.345-127.997 0v0z" />
<glyph unicode="&#xe90b;" glyph-name="local-hospital" d="M831.602 858.852h-639.431c-50.27 0-91.022-40.752-91.022-91.022v0-639.431c0.32-50.141 40.881-90.702 90.992-91.022h639.462c50.141 0.32 90.702 40.881 91.022 90.992v639.462c-0.32 50.141-40.881 90.702-90.992 91.022h-0.031zM740.58 356.693h-137.273v-136.932c0-25.135-20.376-45.511-45.511-45.511v0h-91.42c-25.135 0-45.511 20.376-45.511 45.511v0 136.932h-137.102c-25.135 0-45.511 20.376-45.511 45.511v0 91.42c0 25.135 20.376 45.511 45.511 45.511h136.932v137.102c0 25.135 20.376 45.511 45.511 45.511v0h91.022c25.135 0 45.511-20.376 45.511-45.511v0-136.932h136.932c25.135 0 45.511-20.376 45.511-45.511v0-91.022c0.002-0.17 0.004-0.372 0.004-0.573 0-24.916-20.023-45.156-44.856-45.506h-0.033z" />
<glyph unicode="&#xe90c;" glyph-name="location-city" d="M640 490.688v220.544c0 0.077 0 0.168 0 0.259 0 23.455-9.624 44.663-25.139 59.888l-72.973 72.973c-7.693 7.709-18.33 12.478-30.080 12.478s-22.387-4.769-30.079-12.477l-72.577-72.513c-15.538-15.494-25.152-36.922-25.152-60.595 0-0.004 0-0.009 0-0.013v0.001-49.92h-170.688c-47.058-0.145-85.167-38.254-85.312-85.298v-426.702c0.145-47.058 38.254-85.167 85.298-85.312h597.326c47.108 0.109 85.267 38.268 85.376 85.366v256.010c-0.145 47.058-38.254 85.167-85.298 85.312h-0.014zM298.688 149.376h-85.376v85.312h85.376zM298.688 320.064h-85.376v85.312h85.376zM298.688 490.752h-85.376v85.248h85.376zM554.688 149.44h-85.376v85.248h85.376zM554.688 320.128h-85.376v85.248h85.376zM554.688 490.816h-85.376v85.184h85.376zM554.688 661.504h-85.376v85.184h85.376zM810.688 149.504h-85.376v85.184h85.312zM810.688 320.192h-85.376v85.184h85.312z" />
<glyph unicode="&#xe90d;" glyph-name="lock" d="M768 618.667h-42.667v85.333c0 117.821-95.513 213.333-213.333 213.333s-213.333-95.513-213.333-213.333v0-85.333h-42.667c-47.128 0-85.333-38.205-85.333-85.333v0-426.667c0-47.128 38.205-85.333 85.333-85.333v0h512c47.128 0 85.333 38.205 85.333 85.333v0 426.667c0 47.128-38.205 85.333-85.333 85.333v0zM512 234.667c-47.128 0-85.333 38.205-85.333 85.333s38.205 85.333 85.333 85.333c47.128 0 85.333-38.205 85.333-85.333v0c0-47.128-38.205-85.333-85.333-85.333v0zM384 618.667v85.333c0 70.692 57.308 128 128 128s128-57.308 128-128v0-85.333z" />
<glyph unicode="&#xe90e;" glyph-name="people-alt" d="M708.21 402.204c57.703-33.618 96.466-94.22 98.977-164.062l0.010-0.347v-127.431h170.098v127.431c0 92.615-151.836 147.399-269.084 164.409zM568.889 618.667c0-94.257-76.41-170.667-170.667-170.667s-170.667 76.41-170.667 170.667c0 94.257 76.41 170.667 170.667 170.667s170.667-76.41 170.667-170.667zM637.269 450.219c93.848 0 169.927 76.079 169.927 169.927s-76.079 169.927-169.927 169.927v0c-20.341-0.334-39.713-4.038-57.726-10.575l1.235 0.392c35.189-43.245 56.502-99.006 56.502-159.744s-21.314-116.499-56.87-160.21l0.367 0.466c16.778-6.145 36.149-9.849 56.341-10.181l0.149-0.002zM382.35 407.723c-113.436 0-339.854-56.889-339.854-169.927v-127.431h679.708v127.431c0 113.038-226.418 169.927-339.854 169.927z" />
<glyph unicode="&#xe90f;" glyph-name="perm-contact-calendar" d="M777.5 789.333h-531.001c-41.881 0-75.833-33.952-75.833-75.833v0-530.944c0-0.017 0-0.037 0-0.057 0-41.881 33.952-75.833 75.833-75.833h530.944c41.854 0.097 75.761 33.984 75.89 75.82v531.013c-0.129 41.829-34.004 75.704-75.821 75.833h-0.012zM512 675.556c62.838 0 113.778-50.94 113.778-113.778s-50.94-113.778-113.778-113.778c-62.838 0-113.778 50.94-113.778 113.778v0c0 62.838 50.94 113.778 113.778 113.778v0zM739.556 220.444h-455.111v37.945c0 75.833 151.723 117.532 227.556 117.532s227.556-41.7 227.556-117.589z" />
<glyph unicode="&#xe910;" glyph-name="school" d="M205.483 395.548v-125.156c0-0.038 0-0.083 0-0.128 0-33.099 17.913-62.014 44.573-77.58l0.426-0.23 216.86-121.344c11.969-6.919 26.329-11.002 41.643-11.002s29.673 4.083 42.051 11.219l-0.408-0.217 216.86 121.344c27.15 15.78 45.114 44.73 45.114 77.875 0 0.122 0 0.244-0.001 0.366v-0.019 125.156l-261.689-146.66c-11.969-6.919-26.329-11.002-41.643-11.002s-29.673 4.083-42.051 11.219l0.408-0.217zM467.172 824.889l-365.34-204.402c-13.409-8.081-22.239-22.565-22.239-39.111s8.83-31.030 22.035-38.997l365.772-204.573c11.969-6.919 26.329-11.002 41.643-11.002s29.673 4.083 42.051 11.219l-0.408-0.217 348.672 195.129v-262.656c-0.018-0.468-0.028-1.019-0.028-1.571 0-23.973 19.434-43.406 43.406-43.406s43.406 19.434 43.406 43.406c0 0.553-0.010 1.103-0.031 1.65l0.002-0.079v284.843c0 0.026 0 0.058 0 0.089 0 16.653-9.069 31.188-22.538 38.935l-0.218 0.116-412.672 230.628c-12.018 6.717-26.368 10.672-41.643 10.672s-29.625-3.955-42.083-10.897l0.44 0.225z" />
<glyph unicode="&#xe911;" glyph-name="sms" d="M860.9 884.167h-697.856c-48.1-0.161-87.050-39.111-87.211-87.195v-785.082l174.478 174.478h610.588c48.1 0.161 87.050 39.111 87.211 87.195v523.393c-0.161 48.1-39.111 87.050-87.195 87.211h-0.015zM381.156 491.634h-87.268v87.211h87.268zM555.634 491.634h-87.268v87.211h87.211zM730.112 491.634h-87.268v87.211h87.211z" />
<glyph unicode="&#xe912;" glyph-name="ic-arrow-blue-bottom" d="M448.020 0.007l-383.99 383.99c-35.345 35.345-35.345 92.651 0 127.997v0c35.345 35.345 92.651 35.345 127.997 0v0l319.992-319.992 319.992 319.992c35.345 35.345 92.651 35.345 127.997 0v0c35.345-35.345 35.345-92.651 0-127.997v0l-383.99-383.99c-35.345-35.345-92.651-35.345-127.997 0v0z" />
<glyph unicode="&#xe913;" glyph-name="ic-arrow-left-blue" d="M64.007 511.98l383.99 383.99c35.345 35.345 92.651 35.345 127.997 0v0c35.345-35.345 35.345-92.651 0-127.997v0l-319.992-319.992 319.992-319.992c35.345-35.345 35.345-92.651 0-127.997v0c-35.345-35.345-92.651-35.345-127.997 0v0l-383.99 383.99c-35.345 35.345-35.345 92.651 0 127.997v0z" />
<glyph unicode="&#xe914;" glyph-name="ic-arrow-right" d="M959.993 384.020l-383.99-383.99c-35.345-35.345-92.651-35.345-127.997 0v0c-35.345 35.345-35.345 92.651 0 127.997v0l319.992 319.992-319.992 319.992c-35.345 35.345-35.345 92.651 0 127.997v0c35.345 35.345 92.651 35.345 127.997 0v0l383.99-383.99c35.345-35.345 35.345-92.651 0-127.997v0z" />
<glyph unicode="&#xe915;" glyph-name="ic-arrow-left" d="M64.007 511.98l383.99 383.99c35.345 35.345 92.651 35.345 127.997 0v0c35.345-35.345 35.345-92.651 0-127.997v0l-319.992-319.992 319.992-319.992c35.345-35.345 35.345-92.651 0-127.997v0c-35.345-35.345-92.651-35.345-127.997 0v0l-383.99 383.99c-35.345 35.345-35.345 92.651 0 127.997v0z" />
<glyph unicode="&#xe916;" glyph-name="error-outline" d="M512 704c28.277 0 51.2-22.923 51.2-51.2v0-204.8c0-28.277-22.923-51.2-51.2-51.2s-51.2 22.923-51.2 51.2v204.8c0 28.277 22.923 51.2 51.2 51.2v0zM511.488 960c-282.55-0.292-511.488-229.41-511.488-512 0-282.77 229.23-512 512-512s512 229.23 512 512v0c0 282.77-229.23 512-512 512-0.18 0-0.36 0-0.54 0h0.028zM512 38.4c-226.216 0-409.6 183.384-409.6 409.6s183.384 409.6 409.6 409.6c226.216 0 409.6-183.384 409.6-409.6v0c0-226.216-183.384-409.6-409.6-409.6v0zM563.2 192h-102.4v102.4h102.4z" />
<glyph unicode="&#xe917;" glyph-name="insert-drive-file" d="M241.778 884.167c-0.308 0.004-0.671 0.006-1.034 0.006-48.441 0-87.8-38.886-88.565-87.145l-0.001-0.072-0.455-697.856c0.765-48.331 40.124-87.217 88.566-87.217 0.364 0 0.727 0.002 1.090 0.007l-0.055-0.001h540.9c0.343-0.005 0.749-0.007 1.155-0.007 48.522 0 87.972 38.84 88.955 87.126l0.001 0.092v487.196c0 0.005 0 0.010 0 0.016 0 24.214-10.194 46.047-26.525 61.442l-0.042 0.039-217.543 210.489c-16.237 16.003-38.545 25.885-63.16 25.885-0.115 0-0.231 0-0.346-0.001h-322.94zM557.056 622.478v196.267l247.694-239.9h-202.638c-0.172-0.002-0.374-0.004-0.577-0.004-24.271 0-44.002 19.436-44.478 43.593l-0.001 0.045z" />
<glyph unicode="&#xe918;" glyph-name="import-contacts" d="M746.667 768c-5.359 0.259-11.639 0.406-17.953 0.406-80.606 0-155.598-24.035-218.201-65.328l1.488 0.922c-61.115 40.372-136.108 64.406-216.713 64.406-6.314 0-12.594-0.147-18.836-0.439l0.883 0.033c-2.725 0.058-5.937 0.091-9.156 0.091-62.521 0-122.14-12.428-176.52-34.95l3.063 1.124c-30.687-13.683-51.753-43.798-52.053-78.866v-481.319c0-0.065 0-0.142 0-0.219 0-47.128 38.205-85.333 85.333-85.333 7.272 0 14.331 0.91 21.070 2.621l-0.59-0.127c37.93 9.762 81.474 15.366 126.327 15.366 0.888 0 1.776-0.002 2.663-0.007l-0.137 0.001c3.047 0.074 6.636 0.116 10.234 0.116 66.761 0 130.136-14.5 187.147-40.523l-2.821 1.153c11.58-6.030 25.288-9.567 39.822-9.567s28.242 3.537 40.31 9.797l-0.488-0.23c53.791 24.886 116.74 39.401 183.079 39.401 4.037 0 8.061-0.054 12.073-0.161l-0.592 0.012c0.75 0.004 1.638 0.006 2.526 0.006 44.853 0 88.397-5.604 129.97-16.149l-3.643 0.783c6.335-1.697 13.608-2.672 21.109-2.672 46.783 0 84.708 37.925 84.708 84.708 0 0.259-0.001 0.519-0.003 0.778v-0.040 481.564c-0.3 35.107-21.366 65.221-51.502 78.685l-0.552 0.22c-51.103 21.398-110.488 33.829-172.776 33.829-3.259 0-6.51-0.034-9.752-0.102l0.484 0.008zM896 224.882c-0.269-23.579-19.445-42.589-43.062-42.589-2.879 0-5.691 0.282-8.411 0.821l0.274-0.045c-28.705 5.432-61.726 8.54-95.473 8.54-0.936 0-1.87-0.002-2.805-0.007l0.144 0.001c-86.477-2.437-166.975-25.864-237.252-65.334l2.585 1.334v491.065c67.692 38.136 148.19 61.563 233.944 63.984l0.722 0.016c0.619 0.003 1.352 0.004 2.085 0.004 40.066 0 79.115-4.353 116.701-12.612l-3.586 0.661c19.491-4.327 33.89-21.354 34.133-41.787v-0.027z" />
<glyph unicode="&#xe919;" glyph-name="assignment-ind" d="M810.667 832h-178.347c-17.931 50.124-65.013 85.342-120.32 85.342s-102.389-35.218-120.042-84.452l-0.278-0.89h-178.347c-47.128 0-85.333-38.205-85.333-85.333v0-597.333c0-47.128 38.205-85.333 85.333-85.333v0h597.333c47.128 0 85.333 38.205 85.333 85.333v0 597.333c0 47.128-38.205 85.333-85.333 85.333v0zM512 832c23.564 0 42.667-19.103 42.667-42.667s-19.103-42.667-42.667-42.667c-23.564 0-42.667 19.103-42.667 42.667v0c0.065 23.538 19.129 42.602 42.66 42.667h0.006zM512 661.333c70.692 0 128-57.308 128-128s-57.308-128-128-128c-70.692 0-128 57.308-128 128v0c0 0.051 0 0.111 0 0.171 0 70.598 57.231 127.829 127.829 127.829 0.060 0 0.12 0 0.18 0h-0.009zM768 149.333h-512v59.733c0 85.333 170.667 132.267 256 132.267s256-46.933 256-132.267z" />
<glyph unicode="&#xe91a;" glyph-name="ic-close" d="M302.518 704.012l209.446-209.446 209.446 209.446c12.853 12.853 33.691 12.853 46.544 0v0c12.853-12.853 12.853-33.691 0-46.544v0l-209.446-209.446 209.446-209.446c12.853-12.853 12.853-33.691 0-46.544v0c-12.853-12.853-33.691-12.853-46.544 0v0l-209.446 209.446-209.446-209.446c-12.853-12.853-33.691-12.853-46.544 0v0c-12.853 12.853-12.853 33.691 0 46.544v0l209.446 209.446-209.446 209.446c-12.853 12.853-12.853 33.691 0 46.544v0c12.853 12.853 33.691 12.853 46.544 0v0z" />
</font>
</defs>
</svg>
