<svg xmlns="http://www.w3.org/2000/svg" width="18" height="18" viewBox="0 0 18 18"><defs><style>.a{fill:none;}.b{fill:#bdcbe0;}</style></defs><path class="a" d="M0,0H18V18H0Z"/><path class="b" d="M15.444,2.533H12.193a2.335,2.335,0,0,0-4.387,0H4.556A1.549,1.549,0,0,0,3,4.067V14.8a1.549,1.549,0,0,0,1.556,1.533H15.444A1.549,1.549,0,0,0,17,14.8V4.067A1.549,1.549,0,0,0,15.444,2.533ZM10,2.533a.767.767,0,1,1-.778.767A.775.775,0,0,1,10,2.533Zm.778,10.733H6.889a.767.767,0,1,1,0-1.533h3.889a.767.767,0,1,1,0,1.533ZM13.111,10.2H6.889a.767.767,0,1,1,0-1.533h6.222a.767.767,0,1,1,0,1.533Zm0-3.067H6.889a.767.767,0,1,1,0-1.533h6.222a.767.767,0,1,1,0,1.533Z" transform="translate(-1 -0.333)"/></svg>