<svg xmlns="http://www.w3.org/2000/svg" width="18" height="18" viewBox="0 0 18 18"><defs><style>.a{fill:none;}.b{fill:#bdcbe0;}</style></defs><path class="a" d="M0,0H18V18H0Z"/><path class="b" d="M15,2.5H11.865a2.241,2.241,0,0,0-4.23,0H4.5A1.5,1.5,0,0,0,3,4V14.5A1.5,1.5,0,0,0,4.5,16H15a1.5,1.5,0,0,0,1.5-1.5V4A1.5,1.5,0,0,0,15,2.5Zm-5.25,0A.75.75,0,1,1,9,3.25.752.752,0,0,1,9.75,2.5Zm0,3A2.25,2.25,0,1,1,7.5,7.75,2.247,2.247,0,0,1,9.75,5.5Zm4.5,9h-9V13.45c0-1.5,3-2.325,4.5-2.325s4.5.825,4.5,2.325Z" transform="translate(-0.75 -0.25)"/></svg>