<svg xmlns="http://www.w3.org/2000/svg" width="18" height="18" viewBox="0 0 18 18"><defs><style>.a{fill:none;}.b{fill:#bdcbe0;}</style></defs><path class="a" d="M0,0H18V18H0Z"/><path class="b" d="M10.529,4.588A1.513,1.513,0,0,0,11.54,3.342a1.455,1.455,0,0,0-.218-.965l-1-1.687a.4.4,0,0,0-.677,0l-1,1.687a1.536,1.536,0,0,0,1.874,2.211Zm2.994,7.627-.778-.76-.84.813a2.8,2.8,0,0,1-3.8,0l-.832-.813-.848.813a2.7,2.7,0,0,1-1.9.767A2.747,2.747,0,0,1,3,12.572v2.743a1.542,1.542,0,0,0,1.556,1.519H15.444A1.542,1.542,0,0,0,17,15.315V12.572a2.735,2.735,0,0,1-3.477-.357Zm1.143-5.257H10.778V6.2a.778.778,0,0,0-1.556,0v.76H5.333A2.3,2.3,0,0,0,3,9.237v1.109A1.536,1.536,0,0,0,4.019,11.82,1.563,1.563,0,0,0,5.6,11.471L7.262,9.853l1.657,1.618a1.556,1.556,0,0,0,2.154,0l1.664-1.618,1.657,1.618a1.544,1.544,0,0,0,1.283.418,1.562,1.562,0,0,0,1.314-1.565V9.245A2.294,2.294,0,0,0,14.667,6.958Z" transform="translate(-1 -0.168)"/></svg>