<svg xmlns="http://www.w3.org/2000/svg" width="18" height="18" viewBox="0 0 18 18"><defs><style>.a{fill:none;}.b{fill:#bdcbe0;}</style></defs><path class="a" d="M0,0H18V18H0Z"/><path class="b" d="M15,2.475h-.722V1.737a.722.722,0,1,0-1.444,0v.737H5.611V1.737a.722.722,0,1,0-1.444,0v.737H3.444A1.464,1.464,0,0,0,2,3.949v11.8a1.464,1.464,0,0,0,1.444,1.475H15a1.464,1.464,0,0,0,1.444-1.475V3.949A1.464,1.464,0,0,0,15,2.475Zm-.722,13.273H4.167a.732.732,0,0,1-.722-.737V6.162H15V15.01A.732.732,0,0,1,14.278,15.747Z" transform="translate(-0.222 -0.111)"/></svg>