<svg xmlns="http://www.w3.org/2000/svg" width="18" height="18" viewBox="0 0 18 18"><defs><style>.a{fill:none;}.b{fill:#bdcbe0;}</style></defs><path class="a" d="M0,0H18V18H0Z"/><path class="b" d="M3.778,10.778H8.444A.78.78,0,0,0,9.222,10V3.778A.78.78,0,0,0,8.444,3H3.778A.78.78,0,0,0,3,3.778V10A.78.78,0,0,0,3.778,10.778Zm0,6.222H8.444a.78.78,0,0,0,.778-.778V13.111a.78.78,0,0,0-.778-.778H3.778A.78.78,0,0,0,3,13.111v3.111A.78.78,0,0,0,3.778,17Zm7.778,0h4.667A.78.78,0,0,0,17,16.222V10a.78.78,0,0,0-.778-.778H11.556a.78.78,0,0,0-.778.778v6.222A.78.78,0,0,0,11.556,17ZM10.778,3.778V6.889a.78.78,0,0,0,.778.778h4.667A.78.78,0,0,0,17,6.889V3.778A.78.78,0,0,0,16.222,3H11.556A.78.78,0,0,0,10.778,3.778Z" transform="translate(-1 -1)"/></svg>