<svg xmlns="http://www.w3.org/2000/svg" width="18" height="18" viewBox="0 0 18 18"><defs><style>.a{fill:none;}.b{fill:#bdcbe0;}</style></defs><path class="a" d="M0,0H18V18H0Z"/><path class="b" d="M13.111,7.9H6.889a.767.767,0,1,0,0,1.533h6.222a.767.767,0,1,0,0-1.533Zm2.333-5.367h-.778V1.767a.778.778,0,0,0-1.556,0v.767H6.889V1.767a.778.778,0,0,0-1.556,0v.767H4.556A1.544,1.544,0,0,0,3,4.067V14.8a1.544,1.544,0,0,0,1.556,1.533H15.444A1.549,1.549,0,0,0,17,14.8V4.067A1.549,1.549,0,0,0,15.444,2.533ZM14.667,14.8H5.333a.775.775,0,0,1-.778-.767V6.367H15.444v7.667A.775.775,0,0,1,14.667,14.8Zm-3.889-3.833H6.889a.767.767,0,1,0,0,1.533h3.889a.767.767,0,1,0,0-1.533Z" transform="translate(-1 -0.333)"/></svg>