<svg xmlns="http://www.w3.org/2000/svg" width="18" height="18" viewBox="0 0 18 18"><defs><style>.a{isolation:isolate;}.b{fill:none;}.c{fill:#bdcbe0;}</style></defs><g class="a" transform="translate(18 18) rotate(180)"><path class="b" d="M0,0H18V18H0Z"/><path class="c" d="M7.059,13.337a.775.775,0,0,0,1.1,0l2.792-2.792a.775.775,0,0,0,0-1.1L8.156,6.656a.775.775,0,1,0-1.1,1.1l1.462,1.47H3a.778.778,0,1,0,0,1.556H8.521L7.059,12.24A.782.782,0,0,0,7.059,13.337ZM13.444,2H4.556A1.555,1.555,0,0,0,3,3.556V5.889a.778.778,0,0,0,1.556,0V4.333a.78.78,0,0,1,.778-.778h7.333a.78.78,0,0,1,.778.778V15.667a.78.78,0,0,1-.778.778H5.333a.78.78,0,0,1-.778-.778V14.111a.778.778,0,1,0-1.556,0v2.333A1.56,1.56,0,0,0,4.556,18h8.889A1.56,1.56,0,0,0,15,16.444V3.556A1.56,1.56,0,0,0,13.444,2Z" transform="translate(0 -1)"/></g></svg>