<svg xmlns="http://www.w3.org/2000/svg" width="18" height="18" viewBox="0 0 18 18"><defs><style>.a{fill:none;}.b{fill:#bdcbe0;}</style></defs><path class="a" d="M0,0H18V18H0Z"/><path class="b" d="M7.367,9.475a.958.958,0,1,0,.958.958A.959.959,0,0,0,7.367,9.475Zm4.6,0a.958.958,0,1,0,.958.958A.959.959,0,0,0,11.967,9.475ZM9.667,2a7.667,7.667,0,1,0,7.667,7.667A7.669,7.669,0,0,0,9.667,2Zm0,13.8A6.141,6.141,0,0,1,3.533,9.667a6.216,6.216,0,0,1,.038-.659A7.714,7.714,0,0,0,7.566,4.89a7.647,7.647,0,0,0,6.256,3.243,7.483,7.483,0,0,0,1.725-.2A6.124,6.124,0,0,1,9.667,15.8Z" transform="translate(-0.667 -0.667)"/></svg>