<svg xmlns="http://www.w3.org/2000/svg" width="18" height="18" viewBox="0 0 18 18"><defs><style>.a{fill:none;}.b{fill:#bdcbe0;}</style></defs><path class="a" d="M0,0H18V18H0Z"/><path class="b" d="M13.375,4.5A6.975,6.975,0,0,0,9.25,5.625,6.975,6.975,0,0,0,5.125,4.5a8.115,8.115,0,0,0-3.21.593A1.528,1.528,0,0,0,1,6.48v8.46A1.5,1.5,0,0,0,2.86,16.4a9.263,9.263,0,0,1,2.265-.27,7.931,7.931,0,0,1,3.42.69,1.541,1.541,0,0,0,1.4,0,7.823,7.823,0,0,1,3.42-.69,9.263,9.263,0,0,1,2.265.27,1.489,1.489,0,0,0,1.86-1.455V6.48a1.528,1.528,0,0,0-.915-1.387A8.053,8.053,0,0,0,13.375,4.5ZM16,14.047a.757.757,0,0,1-.9.735,9.456,9.456,0,0,0-1.725-.15A9.034,9.034,0,0,0,9.25,15.757V7.125A9.034,9.034,0,0,1,13.375,6a9.515,9.515,0,0,1,2.025.21.761.761,0,0,1,.6.735Z" transform="translate(-0.25 -1.125)"/></svg>