<svg xmlns="http://www.w3.org/2000/svg" width="18" height="18" viewBox="0 0 18 18"><defs><style>.a{fill:none;}.b{fill:#bdcbe0;}</style></defs><path class="a" d="M0,0H18V18H0Z"/><path class="b" d="M15.84,3H4.6a1.6,1.6,0,0,0-1.6,1.6L3,15.84a1.61,1.61,0,0,0,1.6,1.6H15.84a1.61,1.61,0,0,0,1.6-1.6V4.6A1.61,1.61,0,0,0,15.84,3Zm-1.6,8.827H11.827v2.407a.8.8,0,0,1-.8.8H9.42a.8.8,0,0,1-.8-.8V11.827H6.21a.8.8,0,0,1-.8-.8V9.42a.8.8,0,0,1,.8-.8H8.617V6.21a.8.8,0,0,1,.8-.8h1.6a.8.8,0,0,1,.8.8V8.617h2.407a.8.8,0,0,1,.8.8v1.6A.8.8,0,0,1,14.235,11.827Z" transform="translate(-1.222 -1.222)"/></svg>