<svg xmlns="http://www.w3.org/2000/svg" width="16" height="16" viewBox="0 0 16 16"><defs><style>.a{fill:none;}.b{fill:#bdcbe0;}</style></defs><path class="a" d="M0,0H16V16H0Z"/><path class="b" d="M11,8.139V4.693a1.311,1.311,0,0,0-.393-.94l-1.14-1.14a.664.664,0,0,0-.94,0L7.393,3.746A1.337,1.337,0,0,0,7,4.693v.78H4.333A1.337,1.337,0,0,0,3,6.806v6.667a1.337,1.337,0,0,0,1.333,1.333h9.333A1.337,1.337,0,0,0,15,13.472v-4a1.337,1.337,0,0,0-1.333-1.333ZM5.667,13.472H4.333V12.139H5.667Zm0-2.667H4.333V9.472H5.667Zm0-2.667H4.333V6.806H5.667Zm4,5.333H8.333V12.139H9.667Zm0-2.667H8.333V9.472H9.667Zm0-2.667H8.333V6.806H9.667Zm0-2.667H8.333V4.139H9.667Zm4,8H12.333V12.139h1.333Zm0-2.667H12.333V9.472h1.333Z" transform="translate(-1 -0.806)"/></svg>