<svg xmlns="http://www.w3.org/2000/svg" width="18" height="18" viewBox="0 0 18 18"><defs><style>.a,.b{fill:none;}.b{opacity:0.87;}.c{fill:#bdcbe0;}</style></defs><path class="a" d="M0,0H18V18H0Z"/><path class="b" d="M0,0H18V18H0Z"/><path class="c" d="M14.5,6.25h-.75V4.75a3.75,3.75,0,1,0-7.5,0v1.5H5.5A1.5,1.5,0,0,0,4,7.75v7.5a1.5,1.5,0,0,0,1.5,1.5h9a1.5,1.5,0,0,0,1.5-1.5V7.75A1.5,1.5,0,0,0,14.5,6.25ZM10,13a1.5,1.5,0,1,1,1.5-1.5A1.5,1.5,0,0,1,10,13ZM7.75,6.25V4.75a2.25,2.25,0,1,1,4.5,0v1.5Z" transform="translate(-1 -0.25)"/></svg>