<svg xmlns="http://www.w3.org/2000/svg" width="18" height="18" viewBox="0 0 18 18"><defs><style>.a{fill:none;}.b,.c{fill:#bdcbe0;}.b{fill-rule:evenodd;}</style></defs><rect class="a" width="18" height="18"/><g transform="translate(0.747 2.938)"><g transform="translate(0 0)"><g transform="translate(11.702 6.867)"><path class="b" d="M16.67,13.13a3.473,3.473,0,0,1,1.74,2.89v2.24H21.4V16.02C21.4,14.392,18.731,13.429,16.67,13.13Z" transform="translate(-16.67 -13.13)"/></g><g transform="translate(3.171)"><circle class="c" cx="3" cy="3" r="3" transform="translate(0.082 0.062)"/></g><g transform="translate(9.462 0.049)"><path class="b" d="M14.663,9.974a2.987,2.987,0,1,0,0-5.974,3.12,3.12,0,0,0-.993.179,4.466,4.466,0,0,1,0,5.616A3.12,3.12,0,0,0,14.663,9.974Z" transform="translate(-13.67 -4)"/></g><g transform="translate(0 6.77)"><path class="b" d="M6.974,13C4.98,13,1,14,1,15.987v2.24H12.948v-2.24C12.948,14,8.968,13,6.974,13Z" transform="translate(-1 -13)"/></g></g></g></svg>