<svg xmlns="http://www.w3.org/2000/svg" width="18" height="18" viewBox="0 0 18 18"><defs><style>.a{fill:none;}.b{fill:#bdcbe0;}</style></defs><path class="a" d="M0,0H18V18H0Z"/><path class="b" d="M4.309,11.015v2.2A1.578,1.578,0,0,0,5.1,14.585l3.812,2.133a1.482,1.482,0,0,0,1.464,0l3.812-2.133a1.578,1.578,0,0,0,.793-1.375v-2.2l-4.6,2.578a1.482,1.482,0,0,1-1.464,0Zm4.6-7.547L2.487,7.061a.8.8,0,0,0,0,1.375l6.426,3.594a1.482,1.482,0,0,0,1.464,0L16.506,8.6v4.617a.763.763,0,1,0,1.525,0V8.21a.789.789,0,0,0-.4-.688L10.377,3.468a1.522,1.522,0,0,0-1.464,0Z" transform="translate(-0.697 -1.093)"/></svg>